<svg width="30" height="30" viewBox="0 0 30 30" fill="none" xmlns="http://www.w3.org/2000/svg">
<path fill-rule="evenodd" clip-rule="evenodd" d="M7.5 17.5H22.5C22.9925 17.5 23.4801 17.403 23.9351 17.2146C24.39 17.0261 24.8034 16.7499 25.1517 16.4017C25.4999 16.0534 25.7761 15.64 25.9645 15.1851C26.153 14.7301 26.25 14.2425 26.25 13.75C26.25 13.2576 26.153 12.7699 25.9645 12.315C25.7761 11.86 25.4999 11.4466 25.1517 11.0984C24.8034 10.7501 24.39 10.4739 23.9351 10.2855C23.4801 10.097 22.9925 10 22.5 10C21.7 10 21.0325 9.42376 20.705 8.69376C20.2123 7.59263 19.4115 6.65759 18.3992 6.00151C17.3869 5.34542 16.2063 4.99631 15 4.99631C13.7937 4.99631 12.6131 5.34542 11.6008 6.00151C10.5885 6.65759 9.78767 7.59263 9.295 8.69376C8.9675 9.42376 8.3 10 7.5 10C6.50544 10 5.55161 10.3951 4.84835 11.0984C4.14509 11.8016 3.75 12.7555 3.75 13.75C3.75 14.7446 4.14509 15.6984 4.84835 16.4017C5.55161 17.1049 6.50544 17.5 7.5 17.5Z" fill="#B3B3B3"/>
<path d="M15 23.75V21.25M21.25 25V21.25M8.75 26.25V21.25" stroke="#B3B3B3" stroke-width="2" stroke-linecap="round"/>
</svg>
