<svg width="30" height="30" viewBox="0 0 30 30" fill="none" xmlns="http://www.w3.org/2000/svg">
<path d="M10.2074 9.10309L10.2078 9.10217C10.6216 8.17721 11.2943 7.39179 12.1447 6.84067C12.995 6.28956 13.9867 5.99631 15 5.99631C16.0133 5.99631 17.005 6.28956 17.8553 6.84067C18.7057 7.39179 19.3784 8.17721 19.7922 9.10217L19.7926 9.10309C20.2275 10.0725 21.1896 11 22.5 11C22.8611 11 23.2187 11.0711 23.5524 11.2093C23.886 11.3475 24.1892 11.5501 24.4445 11.8055C24.6999 12.0608 24.9025 12.364 25.0407 12.6976C25.1789 13.0313 25.25 13.3889 25.25 13.75C25.25 14.1112 25.1789 14.4687 25.0407 14.8024C24.9025 15.136 24.6999 15.4392 24.4445 15.6946C24.1892 15.9499 23.886 16.1525 23.5524 16.2907C23.2187 16.4289 22.8611 16.5 22.5 16.5H7.5C6.77065 16.5 6.07118 16.2103 5.55546 15.6946C5.03973 15.1788 4.75 14.4794 4.75 13.75C4.75 13.0207 5.03973 12.3212 5.55546 11.8055C6.07118 11.2897 6.77065 11 7.5 11C8.81045 11 9.77247 10.0725 10.2074 9.10309Z" fill="#3246F4" stroke="#3246F4" stroke-width="2"/>
<path d="M15 23.75V21.25M21.25 25V21.25M8.75 26.25V21.25" stroke="#3246F4" stroke-width="2" stroke-linecap="round"/>
</svg>
