<svg width="38" height="37" viewBox="0 0 38 37" fill="none" xmlns="http://www.w3.org/2000/svg">
<path fill-rule="evenodd" clip-rule="evenodd" d="M17.417 36C16.5006 36 15.7188 35.3367 15.5695 34.4325C15.4321 33.701 14.9054 33.1033 14.197 32.875C13.6197 32.6768 13.0553 32.443 12.507 32.175C11.8545 31.8413 11.0718 31.8912 10.467 32.305C9.73508 32.8313 8.72962 32.7498 8.09201 32.1125L5.61201 29.6325C4.94459 28.965 4.85786 27.9127 5.40701 27.145C5.83053 26.5262 5.89153 25.7284 5.56701 25.0525C5.35319 24.5829 5.16459 24.1022 5.00201 23.6125C4.76918 22.8408 4.12647 22.2626 3.33452 22.1125C2.37947 21.9599 1.67444 21.1396 1.66702 20.1725V17.07C1.66193 15.9552 2.46711 15.0017 3.56701 14.82C4.40143 14.6613 5.09817 14.0898 5.41701 13.3025C5.51201 13.0808 5.61201 12.8608 5.71701 12.6425C6.14107 11.8261 6.08249 10.8428 5.56451 10.0825C4.91673 9.18219 5.0162 7.94523 5.79951 7.16L7.62201 5.3375C8.52088 4.43831 9.93853 4.32193 10.972 5.0625L11.0295 5.1025C11.8012 5.62191 12.7832 5.71597 13.6395 5.3525C14.5556 5.02278 15.2307 4.23559 15.417 3.28L15.442 3.195C15.6479 1.92993 16.7403 1.00052 18.022 1H20.222C21.5383 0.999399 22.6617 1.95143 22.877 3.25L22.917 3.425C23.0937 4.34043 23.7339 5.09804 24.607 5.425C25.4484 5.78617 26.4161 5.69185 27.172 5.175L27.297 5.085C28.3573 4.32085 29.8153 4.43838 30.7395 5.3625L32.417 7.0425C33.2576 7.8879 33.3634 9.21732 32.667 10.185C32.1214 10.9938 32.0518 12.0331 32.4845 12.9075L32.592 13.1575C32.9425 14.0111 33.7005 14.63 34.607 14.8025C35.7917 14.9956 36.6631 16.0171 36.667 17.2175V20C36.6667 21.0584 35.9011 21.9614 34.857 22.135C33.9983 22.2996 33.2987 22.9215 33.0345 23.755C32.9178 24.0883 32.7878 24.4217 32.6445 24.755C32.3109 25.4874 32.3849 26.3409 32.8395 27.005C33.4394 27.8395 33.3463 28.9858 32.6195 29.7125L30.292 32.0425C29.6264 32.708 28.5768 32.7937 27.812 32.245C27.1736 31.8089 26.3466 31.7608 25.662 32.12C25.1742 32.3616 24.6735 32.5761 24.162 32.7625C23.447 33.0091 22.9198 33.6213 22.782 34.365C22.6362 35.3007 21.8339 35.9929 20.887 36H17.417Z" stroke="black" stroke-width="1.5" stroke-linecap="round" stroke-linejoin="round"/>
<path fill-rule="evenodd" clip-rule="evenodd" d="M25 18.5C25 21.7212 22.3887 24.3325 19.1675 24.3325C15.9463 24.3325 13.335 21.7212 13.335 18.5C13.335 15.2788 15.9463 12.6675 19.1675 12.6675C22.3887 12.6675 25 15.2788 25 18.5Z" stroke="black" stroke-width="1.5" stroke-linecap="round" stroke-linejoin="round"/>
</svg>
