<svg width="43" height="37" viewBox="0 0 43 37" fill="none" xmlns="http://www.w3.org/2000/svg">
<path fill-rule="evenodd" clip-rule="evenodd" d="M19.167 6C19.167 8.76142 16.9284 11 14.167 11C11.4056 11 9.16699 8.76142 9.16699 6C9.16699 3.23858 11.4056 1 14.167 1C16.9284 1 19.167 3.23858 19.167 6Z" stroke="black" stroke-width="1.5" stroke-linecap="round" stroke-linejoin="round"/>
<path fill-rule="evenodd" clip-rule="evenodd" d="M26.667 27.25C26.667 32.0825 21.0695 36 14.167 36C7.26449 36 1.66699 32.0825 1.66699 27.25C1.66699 22.4175 7.26449 18.5 14.167 18.5C21.0695 18.5 26.667 22.4175 26.667 27.25Z" stroke="black" stroke-width="1.5" stroke-linecap="round" stroke-linejoin="round"/>
<path d="M37.417 1C37.417 0.585786 37.0812 0.25 36.667 0.25C36.2528 0.25 35.917 0.585786 35.917 1H37.417ZM35.917 6C35.917 6.41421 36.2528 6.75 36.667 6.75C37.0812 6.75 37.417 6.41421 37.417 6H35.917ZM37.417 6.00001C37.417 5.5858 37.0812 5.25001 36.667 5.25001C36.2528 5.25001 35.917 5.5858 35.917 6.00001H37.417ZM35.917 11C35.917 11.4142 36.2528 11.75 36.667 11.75C37.0812 11.75 37.417 11.4142 37.417 11H35.917ZM36.667 6.75C37.0812 6.75 37.417 6.41421 37.417 6C37.417 5.58579 37.0812 5.25 36.667 5.25V6.75ZM31.667 5.25C31.2528 5.25 30.917 5.58579 30.917 6C30.917 6.41421 31.2528 6.75 31.667 6.75V5.25ZM36.6672 5.25C36.253 5.25 35.9172 5.58579 35.9172 6C35.9172 6.41421 36.253 6.75 36.6672 6.75V5.25ZM41.6672 6.75C42.0814 6.75 42.4172 6.41421 42.4172 6C42.4172 5.58579 42.0814 5.25 41.6672 5.25V6.75ZM35.917 1V6H37.417V1H35.917ZM35.917 6.00001V11H37.417V6.00001H35.917ZM36.667 5.25H31.667V6.75H36.667V5.25ZM36.6672 6.75H41.6672V5.25H36.6672V6.75Z" fill="black"/>
</svg>
