<svg width="35" height="37" viewBox="0 0 35 37" fill="none" xmlns="http://www.w3.org/2000/svg">
<path fill-rule="evenodd" clip-rule="evenodd" d="M1.00001 17.3334V24.3334C1.00001 30.7767 6.22335 36.0001 12.6667 36.0001H22C25.0942 36.0001 28.0617 34.7709 30.2496 32.583C32.4375 30.3951 33.6667 27.4276 33.6667 24.3334V17.3334C33.6698 14.2383 32.4416 11.269 30.253 9.08042C28.0644 6.89182 25.0951 5.66365 22 5.66675H12.6667C9.57153 5.66365 6.60227 6.89182 4.41367 9.08042C2.22507 11.269 0.996906 14.2383 1.00001 17.3334V17.3334Z" stroke="black" stroke-width="1.5" stroke-linecap="round" stroke-linejoin="round"/>
<path d="M9.58301 10.3333C9.58301 10.7475 9.91879 11.0833 10.333 11.0833C10.7472 11.0833 11.083 10.7475 11.083 10.3333H9.58301ZM11.083 1C11.083 0.585786 10.7472 0.25 10.333 0.25C9.91879 0.25 9.58301 0.585786 9.58301 1H11.083ZM23.583 10.3333C23.583 10.7475 23.9188 11.0833 24.333 11.0833C24.7472 11.0833 25.083 10.7475 25.083 10.3333H23.583ZM25.083 1C25.083 0.585786 24.7472 0.25 24.333 0.25C23.9188 0.25 23.583 0.585786 23.583 1H25.083ZM10.4582 18.059C10.4582 18.4732 10.794 18.809 11.2082 18.809C11.6224 18.809 11.9582 18.4732 11.9582 18.059H10.4582ZM17.3332 18.059L18.0821 18.0993C18.0828 18.0859 18.0832 18.0724 18.0832 18.059H17.3332ZM16.0421 20.6923L16.5326 21.2597L16.0421 20.6923ZM13.2498 21.5893L13.1815 20.8425C12.7954 20.8778 12.4998 21.2016 12.4998 21.5893C12.4998 21.9771 12.7954 22.3009 13.1815 22.3362L13.2498 21.5893ZM16.0413 22.4855L16.5316 21.918H16.5316L16.0413 22.4855ZM17.3332 25.1173H18.0832C18.0832 25.1037 18.0828 25.0901 18.0821 25.0766L17.3332 25.1173ZM11.9582 25.1173C11.9582 24.7031 11.6224 24.3673 11.2082 24.3673C10.794 24.3673 10.4582 24.7031 10.4582 25.1173H11.9582ZM20.9262 16.6165C20.6127 16.8873 20.5782 17.3609 20.849 17.6743C21.1198 17.9878 21.5934 18.0223 21.9068 17.7515L20.9262 16.6165ZM23.4582 15.42H24.2082C24.2082 15.1266 24.037 14.8601 23.7702 14.738C23.5034 14.6159 23.1899 14.6607 22.9678 14.8525L23.4582 15.42ZM22.7082 27.7727C22.7082 28.1869 23.044 28.5227 23.4582 28.5227C23.8724 28.5227 24.2082 28.1869 24.2082 27.7727H22.7082ZM11.083 10.3333V1H9.58301V10.3333H11.083ZM25.083 10.3333V1H23.583V10.3333H25.083ZM11.9582 18.059C11.9582 17.4227 12.2228 16.977 12.6218 16.6708C13.0415 16.3487 13.6377 16.1648 14.2707 16.1648C14.9036 16.1648 15.4999 16.3487 15.9195 16.6708C16.3185 16.977 16.5832 17.4227 16.5832 18.059H18.0832C18.0832 16.9324 17.5822 16.056 16.8328 15.4808C16.104 14.9215 15.169 14.6648 14.2707 14.6648C13.3724 14.6648 12.4374 14.9215 11.7086 15.4808C10.9591 16.056 10.4582 16.9324 10.4582 18.059H11.9582ZM16.5843 18.0187C16.5405 18.8319 16.1677 19.5923 15.5516 20.125L16.5326 21.2597C17.457 20.4605 18.0164 19.3195 18.0821 18.0993L16.5843 18.0187ZM15.5516 20.125C14.9355 20.6576 14.1292 20.9167 13.3182 20.8425L13.1815 22.3362C14.3984 22.4476 15.6082 22.0589 16.5326 21.2597L15.5516 20.125ZM13.3182 22.3362C14.1289 22.262 14.9349 22.5208 15.551 23.053L16.5316 21.918C15.6073 21.1194 14.3979 20.7311 13.1815 20.8425L13.3182 22.3362ZM15.551 23.053C16.167 23.5853 16.54 24.3452 16.5843 25.1581L18.0821 25.0766C18.0157 23.8568 17.4559 22.7166 16.5316 21.918L15.551 23.053ZM16.5832 25.1173C16.5832 25.7552 16.3182 26.2018 15.9191 26.5085C15.4995 26.831 14.9034 27.0151 14.2707 27.0151C13.638 27.0151 13.0418 26.831 12.6222 26.5085C12.2232 26.2018 11.9582 25.7552 11.9582 25.1173H10.4582C10.4582 26.2447 10.9588 27.1219 11.7082 27.6978C12.437 28.2579 13.3721 28.5151 14.2707 28.5151C15.1692 28.5151 16.1043 28.2579 16.8332 27.6978C17.5826 27.1219 18.0832 26.2447 18.0832 25.1173H16.5832ZM21.9068 17.7515L23.9485 15.9875L22.9678 14.8525L20.9262 16.6165L21.9068 17.7515ZM22.7082 15.42V27.7727H24.2082V15.42H22.7082Z" fill="black"/>
</svg>
