<svg width="30" height="30" viewBox="0 0 30 30" fill="none" xmlns="http://www.w3.org/2000/svg">
<path d="M11.25 0.52127C11.4326 0.743901 11.5444 1.01603 11.5711 1.3027C11.5978 1.58936 11.5383 1.87748 11.4 2.13002C10.3154 4.12005 9.74923 6.35112 9.75375 8.61752C9.75375 16.1569 15.9 22.2619 23.475 22.2619C24.465 22.2606 25.4231 22.1606 26.3494 21.9619C26.6327 21.9013 26.9276 21.9251 27.1976 22.0304C27.4675 22.1357 27.7007 22.3179 27.8681 22.5544C28.0453 22.8005 28.1357 23.0985 28.1252 23.4015C28.1146 23.7046 28.0038 23.9955 27.81 24.2288C26.3393 26.0351 24.4841 27.4905 22.3796 28.4889C20.2751 29.4873 17.9743 30.0036 15.645 30C7.00125 30 0 23.0363 0 14.4563C0 7.99877 3.96375 2.46002 9.6075 0.11252C9.88853 -0.0069174 10.2008 -0.0316323 10.4971 0.0421103C10.7935 0.115853 11.0577 0.284045 11.25 0.52127Z" fill="#FEE500"/>
</svg>
