<svg width="38" height="37" viewBox="0 0 38 37" fill="none" xmlns="http://www.w3.org/2000/svg">
<path fill-rule="evenodd" clip-rule="evenodd" d="M6.18001 27.7837C4.01794 25.5761 2.5515 22.7823 1.96259 19.7489C1.36881 16.707 1.67372 13.558 2.84007 10.6865C3.99647 7.8312 5.97074 5.38118 8.51497 3.64418C13.677 0.118607 20.4726 0.118607 25.6346 3.64418C28.1789 5.38118 30.1531 7.8312 31.3095 10.6865C32.4759 13.558 32.7808 16.707 32.187 19.7489C31.5981 22.7823 30.1317 25.5761 27.9696 27.7837C25.1063 30.722 21.1775 32.3792 17.0748 32.3792C12.9721 32.3792 9.04333 30.722 6.18001 27.7837V27.7837Z" stroke="black" stroke-width="1.5" stroke-linecap="round" stroke-linejoin="round"/>
<path d="M17.211 7.62566C16.7991 7.66931 16.5006 8.03861 16.5442 8.45052C16.5879 8.86242 16.9572 9.16096 17.3691 9.11731L17.211 7.62566ZM22.7568 12.2913C22.9182 12.6727 23.3584 12.8511 23.7398 12.6896C24.1212 12.5281 24.2996 12.088 24.1381 11.7065L22.7568 12.2913ZM28.7271 27.0128C28.4339 26.7202 27.959 26.7206 27.6664 27.0138C27.3738 27.3069 27.3742 27.7818 27.6673 28.0744L28.7271 27.0128ZM36.1372 36.5293C36.4303 36.8219 36.9052 36.8215 37.1978 36.5283C37.4905 36.2352 37.4901 35.7603 37.1969 35.4677L36.1372 36.5293ZM17.3691 9.11731C19.6679 8.87373 21.8555 10.1625 22.7568 12.2913L24.1381 11.7065C22.9794 8.96949 20.1667 7.31248 17.211 7.62566L17.3691 9.11731ZM27.6673 28.0744L36.1372 36.5293L37.1969 35.4677L28.7271 27.0128L27.6673 28.0744Z" fill="black"/>
</svg>
